<?xml version="1.0" standalone="no"?>
<!DOCTYPE svg PUBLIC "-//W3C//DTD SVG 20010904//EN"
 "http://www.w3.org/TR/2001/REC-SVG-20010904/DTD/svg10.dtd">
<svg version="1.0" xmlns="http://www.w3.org/2000/svg"
 width="480.000000pt" height="480.000000pt" viewBox="0 0 480.000000 480.000000"
 preserveAspectRatio="xMidYMid meet">
<metadata>
Created by potrace 1.14, written by Peter Selinger 2001-2017
</metadata>
<g transform="translate(0.000000,480.000000) scale(0.100000,-0.100000)"
fill="#000000" stroke="none">
<path d="M2255 4239 c-27 -3 -72 -9 -100 -13 -191 -24 -425 -100 -615 -199
-470 -246 -827 -671 -994 -1182 -19 -61 -38 -121 -41 -135 -49 -234 -59 -320
-59 -515 0 -226 19 -362 78 -572 99 -349 271 -641 530 -898 141 -140 367 -308
476 -354 14 -6 32 -15 40 -20 28 -18 131 -62 213 -92 142 -52 312 -90 462
-106 122 -12 402 -6 495 11 14 3 41 7 60 10 44 7 206 49 285 74 141 46 330
142 499 254 112 75 298 249 407 383 209 255 380 624 425 915 3 19 8 44 11 55
6 21 8 34 19 155 8 89 9 304 1 375 -9 77 -19 159 -22 170 -1 6 -5 28 -9 50
-16 84 -71 272 -96 330 -9 22 -30 72 -46 110 -84 206 -239 431 -424 615 -279
280 -621 469 -985 545 -80 17 -96 19 -215 34 -76 10 -322 10 -395 0z"/>
</g>
</svg>
